<?xml version="1.0" standalone="no"?>
<!DOCTYPE svg PUBLIC "-//W3C//DTD SVG 20010904//EN"
 "http://www.w3.org/TR/2001/REC-SVG-20010904/DTD/svg10.dtd">
<svg version="1.0" xmlns="http://www.w3.org/2000/svg"
 width="1024.000000pt" height="1024.000000pt" viewBox="0 0 1024.000000 1024.000000"
 preserveAspectRatio="xMidYMid meet">

<g transform="translate(0.000000,1024.000000) scale(0.100000,-0.100000)"
fill="#000000" stroke="none">
<path d="M5072 7140 c-58 -86 -87 -183 -78 -264 7 -68 56 -178 105 -236 29
-34 30 -35 45 -15 35 45 85 154 96 209 7 34 9 81 5 112 -7 60 -58 170 -103
223 l-28 34 -42 -63z"/>
<path d="M3316 6888 c-17 -86 5 -241 46 -327 30 -62 120 -149 196 -189 39 -21
68 -44 77 -62 17 -33 59 -200 52 -207 -3 -2 -33 12 -68 31 -35 19 -119 58
-187 86 -130 56 -154 75 -197 159 -59 117 -141 197 -237 231 -66 23 -208 43
-243 34 -33 -8 -30 -26 24 -139 84 -176 204 -258 416 -284 104 -13 271 -80
382 -154 142 -94 196 -176 307 -462 47 -121 53 -146 48 -184 l-7 -44 -36 54
c-20 30 -68 92 -107 138 -57 67 -78 103 -106 175 -45 114 -72 155 -133 195
-60 40 -213 88 -213 67 0 -2 7 -41 16 -87 28 -147 72 -206 223 -295 115 -68
171 -120 245 -233 99 -148 174 -296 135 -265 -8 6 -72 44 -144 84 -241 134
-319 200 -465 395 -74 98 -106 150 -129 212 -69 178 -216 273 -428 277 -50 0
-95 -2 -99 -6 -10 -11 58 -145 110 -215 58 -79 133 -128 238 -154 156 -38 184
-49 210 -76 38 -42 179 -263 167 -263 -27 0 -327 74 -354 88 -16 8 -58 37 -92
64 -79 62 -141 89 -219 96 -77 6 -134 -8 -243 -59 l-85 -39 50 -51 c101 -105
196 -149 317 -149 56 0 86 7 158 36 67 27 96 34 121 29 75 -15 236 -69 357
-120 137 -57 480 -236 537 -280 18 -14 65 -69 103 -123 67 -95 173 -207 219
-231 43 -23 17 -21 -95 9 -130 34 -194 64 -358 170 -175 113 -243 144 -507
230 -130 43 -268 91 -305 106 -60 25 -80 28 -173 28 -90 0 -115 -4 -172 -26
-66 -26 -188 -102 -188 -116 1 -12 83 -70 145 -100 146 -73 270 -68 441 17 57
28 111 51 121 51 38 0 185 -59 264 -106 l84 -49 -60 -13 c-33 -7 -96 -25 -140
-39 -71 -24 -96 -27 -225 -28 -182 -1 -229 -16 -327 -108 -58 -54 -143 -166
-143 -188 0 -15 139 -31 231 -27 78 3 104 9 149 32 65 32 83 48 163 141 33 39
75 78 93 88 19 9 82 29 141 43 174 42 240 29 430 -88 l84 -51 -88 -23 c-48
-12 -115 -32 -147 -43 -33 -12 -82 -21 -110 -21 -211 0 -333 -73 -448 -266
-76 -127 -79 -118 45 -110 189 12 279 53 387 176 115 130 122 136 180 153 213
60 366 49 584 -44 l91 -38 -61 -1 c-86 0 -205 -33 -305 -84 -61 -31 -109 -47
-160 -55 -134 -21 -257 -98 -315 -197 -27 -45 -94 -207 -94 -225 0 -14 119 -3
198 17 133 35 231 121 301 264 l47 95 75 38 c80 40 200 70 257 65 l35 -3 -55
-55 c-31 -30 -90 -86 -133 -125 -52 -47 -86 -87 -105 -125 -28 -55 -60 -182
-60 -235 0 -25 2 -26 33 -20 63 13 153 62 201 111 63 63 102 147 117 248 10
75 29 126 61 169 13 17 17 16 78 -15 137 -68 242 -209 292 -393 19 -71 22
-106 22 -300 1 -200 -1 -228 -22 -310 -58 -220 -172 -366 -379 -481 -78 -44
-230 -99 -317 -115 -36 -7 -66 -16 -66 -19 0 -14 177 -20 277 -10 168 16 286
50 423 121 36 19 68 35 72 37 5 2 -6 -25 -24 -60 -21 -42 -60 -92 -117 -149
l-86 -87 40 6 c166 21 340 123 425 250 l28 42 21 -34 c38 -60 147 -153 224
-190 60 -29 225 -79 234 -71 2 1 -32 37 -75 81 -62 65 -119 146 -150 216 -2 4
27 -10 64 -32 118 -69 279 -117 451 -135 65 -7 278 3 269 13 -3 3 -54 17 -113
32 -290 73 -510 227 -604 423 -61 128 -82 243 -83 462 -1 185 6 238 46 365 32
103 78 180 148 251 75 76 183 137 207 117 36 -30 55 -73 69 -155 22 -137 39
-177 106 -249 59 -63 158 -123 231 -140 28 -6 28 -6 22 32 -32 197 -59 259
-146 335 -34 30 -96 88 -138 129 l-76 75 33 3 c50 5 184 -33 265 -75 l72 -38
46 -93 c55 -111 127 -190 214 -233 65 -32 175 -59 242 -59 l42 0 -15 53 c-62
211 -184 338 -362 376 -29 6 -65 11 -80 11 -15 0 -76 25 -137 55 -118 60 -225
89 -307 83 -26 -2 -44 0 -40 3 17 14 135 60 217 85 126 38 295 40 405 5 110
-34 145 -55 181 -108 41 -62 115 -139 160 -168 58 -38 164 -65 277 -72 122 -7
118 -16 49 105 -104 183 -229 262 -416 262 -39 0 -78 8 -121 26 -34 14 -101
35 -147 48 l-85 22 69 46 c97 65 160 94 230 108 54 11 74 10 170 -10 154 -31
192 -50 259 -128 108 -127 187 -171 319 -180 82 -5 215 12 215 28 0 19 -103
160 -141 195 -23 20 -71 51 -108 69 -65 30 -69 31 -216 32 -100 0 -160 4 -180
13 -16 7 -79 25 -138 41 l-108 27 88 46 c95 49 236 97 284 97 16 0 65 -18 109
-40 131 -66 233 -84 340 -59 56 13 174 71 218 107 l34 28 -54 42 c-149 115
-318 139 -488 70 -148 -60 -177 -71 -340 -120 -215 -66 -248 -81 -392 -183
-123 -86 -200 -129 -293 -160 -53 -18 -217 -56 -222 -51 -1 1 20 19 48 40 54
42 131 126 198 219 52 71 119 116 419 282 213 117 363 179 522 215 53 11 59
11 135 -20 183 -74 341 -44 477 92 l61 61 -75 38 c-106 53 -179 72 -253 67
-78 -7 -134 -32 -215 -97 -36 -29 -76 -57 -90 -63 -28 -11 -354 -87 -357 -84
-7 6 160 247 187 269 17 14 47 29 68 32 231 39 331 110 425 300 26 52 47 99
47 105 0 15 -124 12 -201 -4 -84 -18 -158 -55 -216 -109 -53 -48 -84 -99 -117
-190 -15 -42 -45 -92 -83 -139 -32 -40 -84 -107 -115 -149 -31 -42 -76 -92
-100 -112 -46 -38 -248 -178 -248 -173 0 2 11 28 24 58 14 31 41 107 61 171
l36 115 80 53 c97 63 162 134 183 197 19 56 45 189 39 195 -8 8 -116 -24 -162
-49 -112 -58 -154 -129 -206 -349 -33 -141 -78 -252 -135 -338 -54 -80 -126
-156 -116 -122 3 11 33 124 67 250 74 279 89 325 141 429 73 146 119 187 348
315 136 75 151 81 245 96 55 9 123 27 152 40 63 28 141 99 184 167 29 45 79
164 79 188 0 13 -113 13 -181 0 -82 -15 -171 -64 -222 -120 -25 -27 -66 -90
-92 -140 -53 -103 -63 -112 -240 -196 -60 -29 -136 -69 -168 -88 l-58 -35 6
37 c10 59 44 182 58 208 7 13 50 49 97 81 98 67 170 153 196 236 16 52 33 307
20 307 -16 0 -116 -56 -173 -97 -120 -84 -169 -178 -183 -353 -7 -83 -19 -132
-54 -235 -24 -72 -54 -182 -66 -245 -11 -63 -26 -131 -31 -150 -15 -50 -100
-220 -111 -220 -12 0 -102 125 -137 190 -35 65 -55 144 -46 179 4 14 53 70
109 126 57 55 113 119 125 142 35 69 51 159 51 287 l0 119 -32 -7 c-108 -21
-258 -147 -298 -252 -26 -65 -28 -97 -20 -399 l5 -170 67 -140 c85 -179 92
-203 92 -300 -2 -192 -117 -453 -273 -619 -76 -80 -159 -144 -341 -266 -123
-81 -178 -126 -266 -214 -105 -106 -200 -230 -228 -298 l-13 -30 -33 59 c-83
147 -251 327 -395 423 -215 143 -332 256 -393 379 -31 62 -37 85 -36 135 0 55
6 73 58 169 65 120 86 186 86 268 0 63 -19 169 -30 169 -17 0 -110 -93 -138
-137 -17 -27 -38 -75 -47 -108 -16 -53 -16 -74 -5 -209 6 -82 14 -155 17 -163
3 -7 3 -13 0 -13 -13 0 -68 113 -96 196 -60 179 -52 282 46 564 l57 165 -2
115 c-1 63 3 156 9 205 25 199 -55 352 -225 435 -34 16 -76 33 -93 36 l-33 7
0 -131 c0 -205 42 -302 184 -422 58 -48 96 -104 96 -140 0 -46 -105 -309 -129
-325 -15 -8 -76 118 -131 270 -26 72 -75 204 -109 295 -50 133 -64 183 -72
260 -22 212 -94 320 -276 414 -73 37 -80 38 -87 4z"/>
<path d="M4440 6901 c0 -26 61 -176 85 -211 61 -88 155 -139 276 -149 77 -7
79 -6 79 15 0 38 -40 157 -67 198 -50 76 -122 124 -221 145 -64 13 -152 15
-152 2z"/>
<path d="M5663 6899 c-168 -33 -271 -146 -307 -338 l-6 -33 73 7 c131 13 220
63 286 158 28 41 81 174 81 203 0 16 -56 18 -127 3z"/>
<path d="M4790 6265 l0 -115 -175 0 -175 0 0 -110 0 -110 85 0 c136 0 125 45
125 -499 0 -402 -2 -460 -16 -471 -8 -8 -54 -17 -102 -21 -48 -4 -88 -8 -90
-8 -1 -1 -1 -44 0 -97 l3 -96 135 1 c74 1 152 4 173 8 l37 6 0 -132 0 -131 90
0 90 0 0 130 0 130 85 0 85 0 0 -130 0 -130 90 0 90 0 0 129 0 129 73 12 c194
33 335 122 396 250 22 47 26 69 26 150 0 82 -4 102 -26 150 -43 88 -112 147
-198 170 l-44 12 29 18 c128 79 192 249 149 396 -14 48 -27 69 -74 115 -66 65
-126 91 -247 109 l-79 12 0 119 0 119 -92 0 -93 0 0 -115 0 -115 -85 0 -85 0
0 115 0 115 -90 0 -90 0 0 -115z m492 -335 c44 -13 93 -52 113 -91 19 -36 19
-132 0 -169 -43 -83 -169 -120 -358 -104 l-82 6 0 184 0 184 145 0 c80 0 162
-5 182 -10z m73 -592 c22 -7 58 -31 81 -53 33 -31 44 -50 49 -86 10 -67 -10
-127 -56 -171 -59 -56 -113 -68 -306 -68 l-163 0 0 201 0 202 178 -6 c104 -3
193 -11 217 -19z"/>
</g>
</svg>
