<?xml version="1.0" standalone="no"?>
<!DOCTYPE svg PUBLIC "-//W3C//DTD SVG 20010904//EN"
 "http://www.w3.org/TR/2001/REC-SVG-20010904/DTD/svg10.dtd">
<svg version="1.0" xmlns="http://www.w3.org/2000/svg"
 width="500.000000pt" height="500.000000pt" viewBox="0 0 500.000000 500.000000"
 preserveAspectRatio="xMidYMid meet">

<g transform="translate(0.000000,500.000000) scale(0.100000,-0.100000)"
fill="#000000" stroke="none">
<path d="M0 3843 l0 -1158 50 85 c27 47 52 91 57 98 6 9 143 -86 491 -339 266
-193 484 -350 486 -348 2 2 -104 335 -235 739 l-239 735 21 17 c12 10 285 210
607 444 323 235 596 435 607 445 19 19 10 19 -368 19 -213 0 -387 2 -387 5 0
3 52 96 115 206 63 111 115 203 115 205 0 2 -297 4 -660 4 l-660 0 0 -1157z"/>
<path d="M2253 3882 c-39 -12 -152 -101 -182 -143 -67 -92 -97 -258 -72 -394
24 -131 107 -243 207 -281 39 -15 44 -20 44 -48 0 -17 9 -107 20 -201 15 -129
20 -236 20 -440 0 -148 5 -286 10 -306 15 -55 51 -82 106 -82 40 0 51 4 75 31
36 41 41 80 37 303 l-3 184 70 47 c39 26 113 77 165 113 52 37 114 78 137 92
49 28 143 56 143 42 0 -51 23 -373 31 -438 13 -108 28 -137 78 -152 50 -15 90
3 112 51 18 39 17 99 -15 675 -8 154 -20 413 -27 575 -12 316 -18 347 -65 369
-33 15 -59 14 -93 -4 -52 -26 -55 -50 -47 -348 3 -150 9 -300 13 -334 5 -57 4
-63 -13 -63 -55 0 -147 -47 -380 -196 -74 -47 -137 -85 -139 -83 -2 2 -7 47
-11 101 l-7 96 46 20 c100 44 174 144 196 266 34 182 -8 356 -107 447 -58 54
-117 79 -210 89 -42 5 -86 11 -97 14 -11 2 -30 1 -42 -2z m238 -138 c79 -47
119 -144 119 -289 0 -140 -36 -231 -113 -289 -15 -11 -29 -18 -31 -15 -2 2 -9
63 -15 134 -11 128 -45 403 -57 463 l-6 30 36 -8 c19 -4 50 -16 67 -26z m-288
-129 c17 -75 41 -365 35 -428 l-3 -38 -41 35 c-23 20 -51 58 -65 88 -21 47
-24 67 -24 183 0 133 8 167 52 234 19 30 25 21 46 -74z"/>
<path d="M1010 3455 l0 -405 45 0 45 0 0 325 c0 179 3 325 8 325 4 0 59 -145
123 -323 l117 -322 52 0 53 0 116 322 c64 178 119 323 124 323 4 0 7 -146 7
-325 l0 -325 45 0 45 0 0 405 0 405 -69 0 c-66 0 -69 -1 -79 -27 -5 -16 -56
-156 -112 -313 -56 -157 -107 -298 -112 -313 -6 -16 -14 -25 -18 -20 -4 4 -61
158 -126 341 l-118 332 -73 0 -73 0 0 -405z"/>
</g>
</svg>
